<?xml version="1.0" encoding="UTF-8" standalone="no"?>
<!DOCTYPE svg PUBLIC "-//W3C//DTD SVG 1.1//EN" "http://www.w3.org/Graphics/SVG/1.1/DTD/svg11.dtd">
<svg width="100%" height="100%" viewBox="0 0 500 238" version="1.1" xmlns="http://www.w3.org/2000/svg" xmlnsXlink="http://www.w3.org/1999/xlink" xmlSpace="preserve" xmlnsSerif="http://www.serif.com/" style="fill-rule:evenodd;clip-rule:evenodd;stroke-linejoin:round;stroke-miterlimit:2;">
    <g transform="matrix(1,0,0,1,0,-40)">
        <clipPath id="_clip1">
            <rect x="194.667" y="43.13" width="121.807" height="114"/>
        </clipPath>
        <g clip-path="url(#_clip1)">
            <path d="M267.828,74.031C269.599,75.854 272.526,75.885 274.344,74.115L292.875,56.036C293.203,57.547 293.24,59.672 291.755,61.557L276.557,76.38C275.677,77.24 275.182,78.391 275.167,79.625C275.151,80.854 275.615,82.016 276.474,82.901L276.885,83.318C277.745,84.198 278.896,84.693 280.125,84.708C281.354,84.714 282.521,84.255 283.401,83.396L298.599,68.573C300.521,67.13 302.646,67.224 304.146,67.589L285.615,85.667C284.729,86.526 284.24,87.677 284.224,88.906C284.208,90.141 284.672,91.302 285.531,92.182C286.391,93.063 287.542,93.557 288.776,93.573C290.005,93.583 291.172,93.125 292.052,92.266L307.25,77.438C309.089,76.057 311.036,76.005 312.458,76.26L291.786,96.422C289.198,98.948 285.036,98.901 282.516,96.318L278.615,92.245C278.036,91.641 277.078,91.62 276.474,92.198C276.464,92.208 276.458,92.219 276.448,92.229C276.443,92.234 276.432,92.24 276.427,92.245L270.922,97.609C270.375,98.146 269.646,98.438 268.88,98.427C268.115,98.417 267.401,98.109 266.865,97.563L261.99,92.563C260.88,91.432 260.906,89.609 262.042,88.505L266.453,84.198L271.573,89.443C272.156,90.042 273.12,90.057 273.719,89.469C274.318,88.885 274.328,87.927 273.745,87.323L267.568,80.995C267.563,80.995 267.563,80.995 267.563,80.99L263.625,76.958C261.099,74.365 261.151,70.203 263.745,67.672L284.411,47.51C284.63,48.943 284.531,50.885 283.104,52.688L267.906,67.516C267.026,68.375 266.531,69.526 266.516,70.755C266.5,71.99 266.969,73.151 267.828,74.031ZM253.734,108.719L250.51,105.411L260.641,95.526L263.865,98.833L253.734,108.719ZM289.823,150.052C290.708,150.964 290.693,152.427 289.781,153.318C289.339,153.75 288.75,153.974 288.141,153.974C287.521,153.969 286.943,153.719 286.516,153.281L244.203,109.901C244.146,109.813 244.078,109.724 244,109.641C243.922,109.563 243.833,109.495 243.745,109.432L234.917,100.385L236.568,98.771L238.224,97.161L289.823,150.052ZM231.953,99.036C231.406,99.573 230.677,99.865 229.911,99.854C229.146,99.844 228.427,99.536 227.891,98.984L224.63,95.641L229.828,90.568C230.427,89.984 230.438,89.021 229.854,88.422C229.271,87.823 228.307,87.813 227.708,88.396L220.135,95.786C217.359,98.495 212.896,98.438 210.182,95.661L202.005,87.276C199.427,84.635 197.927,81.177 197.776,77.531C197.604,73.458 197.823,67.354 199.771,61.047C206.12,59.26 212.229,59.193 216.297,59.464C219.938,59.708 223.359,61.292 225.938,63.927L234.115,72.318C235.427,73.661 236.141,75.438 236.115,77.318C236.089,79.198 235.339,80.953 233.99,82.266L232.703,83.526C232.104,84.109 232.094,85.073 232.677,85.672L237,90.099C238.104,91.234 238.083,93.057 236.948,94.161L234.453,96.599L231.953,99.036ZM285.292,54.797C285.333,54.755 285.375,54.708 285.411,54.667C289.385,49.76 286.589,44.234 286.469,44C286.25,43.573 285.839,43.276 285.365,43.203C284.891,43.125 284.406,43.276 284.063,43.615L261.625,65.5C257.839,69.198 257.76,75.286 261.453,79.073L264.333,82.026L259.922,86.333C258.052,88.151 257.656,90.917 258.74,93.146L248.391,103.24L240.182,94.823C240.604,94.016 240.839,93.12 240.849,92.182C240.87,90.604 240.271,89.115 239.172,87.984L235.906,84.635L236.109,84.438C238.036,82.563 239.115,80.047 239.146,77.354C239.182,74.667 238.167,72.125 236.286,70.198L228.104,61.813C225.01,58.635 220.891,56.729 216.5,56.438C212.016,56.135 205.193,56.229 198.13,58.37C197.661,58.51 197.286,58.875 197.13,59.344C194.818,66.349 194.557,73.172 194.745,77.656C194.927,82.052 196.734,86.224 199.833,89.396L208.01,97.781C209.984,99.802 212.604,100.818 215.224,100.813C217.76,100.813 220.297,99.865 222.25,97.958L222.458,97.76L225.719,101.104C226.823,102.234 228.297,102.865 229.875,102.885L229.948,102.885C230.859,102.885 231.74,102.677 232.536,102.286L240.745,110.698L202.521,147.984C200.411,150.042 200.37,153.432 202.427,155.542C203.474,156.615 204.865,157.151 206.255,157.151C207.599,157.151 208.948,156.646 209.984,155.635L244.755,121.714C245.354,121.13 245.37,120.167 244.781,119.568C244.198,118.969 243.234,118.958 242.641,119.542L207.865,153.464C207.422,153.891 206.844,154.135 206.224,154.12C205.609,154.109 205.031,153.865 204.599,153.422C204.172,152.979 203.938,152.396 203.943,151.781C203.953,151.161 204.198,150.589 204.641,150.156L242.859,112.87L284.344,155.396C285.339,156.417 286.677,156.99 288.104,157.01L288.172,157.01C289.573,157.01 290.896,156.474 291.896,155.49C294.01,153.432 294.052,150.042 291.995,147.938L255.854,110.891L266.198,100.797C267.047,101.234 267.984,101.458 268.917,101.458C270.406,101.458 271.896,100.901 273.042,99.781L277.484,95.448L280.333,98.427C282.214,100.354 284.708,101.318 287.203,101.318C289.625,101.318 292.042,100.411 293.906,98.594L316.344,76.703C316.688,76.37 316.854,75.891 316.792,75.417C316.724,74.938 316.438,74.521 316.021,74.292C315.792,74.167 310.333,71.234 305.328,75.083C305.281,75.12 305.24,75.161 305.198,75.203L289.932,90.094C289.63,90.385 289.245,90.552 288.813,90.542C288.391,90.531 288,90.365 287.703,90.063C287.411,89.766 287.25,89.365 287.255,88.943C287.26,88.526 287.432,88.13 287.729,87.839L307.958,68.104C308.297,67.776 308.464,67.302 308.401,66.833C308.344,66.359 308.068,65.943 307.656,65.708C307.411,65.568 301.703,62.354 296.682,66.219C296.635,66.255 296.589,66.292 296.547,66.333L281.281,81.224C280.979,81.521 280.589,81.672 280.161,81.672C279.745,81.667 279.349,81.5 279.057,81.198L278.646,80.781C278.354,80.479 278.193,80.083 278.203,79.661C278.203,79.24 278.375,78.844 278.677,78.552L293.938,63.661C293.984,63.62 294.021,63.578 294.057,63.531C298.047,58.609 294.979,52.818 294.844,52.573C294.62,52.156 294.208,51.87 293.74,51.797C293.266,51.724 292.792,51.88 292.453,52.214L272.224,71.943C271.922,72.234 271.536,72.385 271.104,72.391C270.688,72.385 270.292,72.214 270,71.911C269.703,71.615 269.547,71.214 269.552,70.797C269.557,70.375 269.724,69.979 270.026,69.688L285.292,54.797" style="fill:rgb(100,156,44);fill-rule:nonzero;"/>
        </g>
    </g>
    <g transform="matrix(1,0,0,1,0,-40)">
        <path d="M226.438,70.74C224.615,68.87 222.484,67.391 220.099,66.333C219.333,65.995 218.438,66.339 218.099,67.104C217.76,67.87 218.104,68.766 218.87,69.104C220.901,70.005 222.714,71.266 224.266,72.854L225.969,74.604C227.464,76.135 227.432,78.599 225.901,80.099L222.031,83.87L218.167,87.646C216.63,89.141 214.167,89.109 212.672,87.573L210.969,85.828C209.417,84.24 208.203,82.396 207.354,80.344C207.031,79.568 206.146,79.198 205.37,79.521C204.599,79.844 204.229,80.729 204.547,81.505C205.547,83.911 206.974,86.078 208.797,87.948L210.5,89.693C211.854,91.083 213.651,91.776 215.453,91.776C217.198,91.776 218.943,91.125 220.286,89.818L224.151,86.042L228.021,82.271C230.75,79.604 230.807,75.214 228.141,72.484L226.438,70.74" style="fill:rgb(100,156,44);fill-rule:nonzero;"/>
    </g>
    <g transform="matrix(1,0,0,1,0,-40)">
        <path d="M212.49,66.745C212.526,66.839 212.573,66.922 212.63,67.005C212.682,67.094 212.745,67.167 212.813,67.24C212.885,67.307 212.964,67.37 213.047,67.427C213.13,67.479 213.219,67.526 213.307,67.568C213.401,67.604 213.495,67.635 213.594,67.651C213.693,67.672 213.786,67.682 213.885,67.682C214.286,67.682 214.682,67.521 214.964,67.24C215.245,66.953 215.406,66.563 215.406,66.167C215.406,65.766 215.245,65.38 214.964,65.094C214.891,65.026 214.813,64.958 214.729,64.906C214.646,64.849 214.557,64.802 214.469,64.766C214.375,64.729 214.281,64.698 214.182,64.682C213.99,64.641 213.786,64.641 213.594,64.682C213.495,64.698 213.401,64.729 213.307,64.766C213.219,64.802 213.13,64.849 213.047,64.906C212.964,64.958 212.885,65.026 212.813,65.094C212.531,65.38 212.37,65.766 212.37,66.167C212.37,66.266 212.38,66.365 212.401,66.464C212.422,66.557 212.448,66.656 212.49,66.745" style="fill:rgb(100,156,44);fill-rule:nonzero;"/>
    </g>
    <g transform="matrix(1,0,0,1,0,-40)">
        <path d="M253.688,140.094C253.688,138.589 253.292,137.156 252.573,135.922C251.932,134.833 251.042,133.87 250.005,133.156C248.943,133.87 248.057,134.833 247.411,135.922C246.724,137.156 246.302,138.589 246.302,140.094C246.302,141.625 246.724,143.057 247.411,144.292C248.057,145.375 248.943,146.339 250.005,147.031C251.042,146.339 251.932,145.375 252.573,144.292C253.292,143.057 253.688,141.625 253.688,140.094ZM254.276,134.932C255.167,136.464 255.661,138.219 255.661,140.094C255.661,141.969 255.167,143.75 254.276,145.255C253.391,146.807 252.104,148.12 250.552,149.005C250.255,149.229 249.833,149.255 249.51,149.057L250.005,148.193L249.51,149.057C247.932,148.141 246.625,146.833 245.708,145.255C244.844,143.75 244.328,141.969 244.328,140.094C244.328,138.219 244.844,136.464 245.708,134.932C246.625,133.401 247.906,132.094 249.438,131.182C249.734,130.984 250.156,130.958 250.5,131.156L250.005,131.995L250.5,131.156C252.057,132.068 253.365,133.38 254.276,134.932Z" style="fill:rgb(100,156,44);fill-rule:nonzero;"/>
    </g>
    <g transform="matrix(1,0,0,1,0,-40)">
        <path d="M250.995,148.193C250.995,147.651 250.552,147.203 250.005,147.203C249.464,147.203 249.021,147.651 249.021,148.193L249.021,170.781C249.021,171.328 249.464,171.771 250.005,171.771C250.552,171.771 250.995,171.328 250.995,170.781L250.995,148.193Z" style="fill:rgb(100,156,44);fill-rule:nonzero;"/>
    </g>
    <g transform="matrix(1,0,0,1,0,-40)">
        <clipPath id="_clip2">
            <rect x="248" y="148" width="16.969" height="13.333"/>
        </clipPath>
        <g clip-path="url(#_clip2)">
            <path d="M258.943,157.698C260.203,156.932 261.214,155.896 261.906,154.688C262.547,153.573 262.943,152.339 263.016,151.078C261.88,150.51 260.625,150.219 259.339,150.219C257.932,150.219 256.474,150.589 255.167,151.354C253.859,152.12 252.823,153.177 252.104,154.411C251.464,155.5 251.094,156.76 250.995,158.016C252.156,158.563 253.411,158.859 254.672,158.859C256.104,158.859 257.536,158.51 258.844,157.745L259.339,158.589L258.844,157.745C258.87,157.724 258.917,157.724 258.943,157.698ZM263.609,155.672C262.771,157.156 261.51,158.464 259.932,159.401C259.906,159.427 259.88,159.427 259.833,159.448C258.229,160.391 256.448,160.833 254.672,160.833C252.896,160.833 251.141,160.365 249.589,159.5C249.24,159.349 249.021,159.005 249.021,158.589C249.021,156.781 249.49,154.979 250.401,153.427C251.292,151.896 252.547,150.589 254.177,149.651C255.807,148.708 257.589,148.266 259.339,148.266C261.115,148.266 262.87,148.708 264.427,149.599C264.771,149.745 265.016,150.094 265.016,150.49C265.016,152.313 264.526,154.094 263.609,155.672Z" style="fill:rgb(100,156,44);fill-rule:nonzero;"/>
        </g>
    </g>
    <g transform="matrix(1,0,0,1,0,-40)">
        <path d="M240.083,159.401C238.474,158.464 237.24,157.156 236.38,155.672C235.464,154.094 234.995,152.313 234.995,150.49L234.969,150.49C234.969,150.094 235.219,149.745 235.563,149.599C237.12,148.708 238.87,148.266 240.651,148.266C242.401,148.266 244.177,148.708 245.807,149.651C247.438,150.589 248.724,151.896 249.589,153.427C250.5,154.979 250.969,156.781 250.995,158.589C250.995,159.005 250.745,159.349 250.401,159.5C248.844,160.365 247.094,160.833 245.318,160.833C243.563,160.833 241.786,160.391 240.156,159.448C240.13,159.427 240.104,159.427 240.083,159.401ZM238.083,154.688C238.771,155.896 239.786,156.932 241.068,157.698C241.094,157.724 241.12,157.724 241.141,157.745L240.651,158.589L241.141,157.745C242.453,158.51 243.906,158.859 245.318,158.859C246.599,158.859 247.859,158.563 248.995,158.016C248.896,156.76 248.526,155.5 247.885,154.411C247.167,153.177 246.156,152.12 244.823,151.354C243.516,150.589 242.083,150.219 240.651,150.219C239.391,150.219 238.13,150.51 236.969,151.078C237.068,152.339 237.438,153.573 238.083,154.688Z" style="fill:rgb(100,156,44);fill-rule:nonzero;"/>
    </g>
    <g transform="matrix(1,0,0,1,0,-40)">
        <clipPath id="_clip3">
            <rect x="241.333" y="169.333" width="17.333" height="3.62"/>
        </clipPath>
        <g clip-path="url(#_clip3)">
            <path d="M242.75,171.302C242.276,171.573 242.104,172.167 242.375,172.661C242.651,173.13 243.24,173.276 243.708,173.031C243.734,173.005 248.698,170.115 256.401,173.078C256.922,173.276 257.49,173.031 257.682,172.51C257.859,172.016 257.609,171.448 257.115,171.25C248.552,167.969 242.771,171.302 242.75,171.302Z" style="fill:rgb(100,156,44);fill-rule:nonzero;"/>
        </g>
    </g>
    <g transform="matrix(1,0,0,1,0.125006,177.134)">
        <g>
            <g>
                <path d="M3.104,-42.542L15.417,-42.542C21.333,-42.542 26.385,-40.521 30.583,-36.479C34.776,-32.437 36.875,-27.375 36.875,-21.292C36.875,-15.177 34.781,-10.104 30.604,-6.062C26.422,-2.021 21.359,0 15.417,0L3.104,0L3.104,-42.542ZM12.792,-8.667L14.292,-8.667C17.833,-8.667 20.729,-9.859 22.979,-12.25C25.229,-14.635 26.365,-17.635 26.396,-21.25C26.396,-24.859 25.271,-27.865 23.021,-30.271C20.771,-32.672 17.859,-33.875 14.292,-33.875L12.792,-33.875L12.792,-8.667Z" style="fill:rgb(100,156,44);fill-rule:nonzero;"/>
            </g>
        </g>
    </g>
    <g transform="matrix(1,0,0,1,38.1666,177.134)">
        <g>
            <g>
                <path d="M4.896,-3.271C2.422,-5.964 1.188,-9.271 1.188,-13.187C1.188,-17.115 2.422,-20.437 4.896,-23.146C7.365,-25.865 10.51,-27.229 14.333,-27.229C17.844,-27.229 20.734,-26.125 23,-23.917L23,-26.458L32.125,-26.458L32.125,0L23.104,0L23.104,-3L23,-3C20.734,-0.484 17.844,0.771 14.333,0.771C10.51,0.771 7.365,-0.573 4.896,-3.271ZM12.646,-17.687C11.464,-16.521 10.875,-15.021 10.875,-13.187C10.875,-11.365 11.443,-9.88 12.583,-8.729C13.719,-7.589 15.214,-7.021 17.063,-7.021C18.854,-7.021 20.323,-7.604 21.479,-8.771C22.63,-9.937 23.208,-11.417 23.208,-13.208C23.208,-15.026 22.609,-16.521 21.417,-17.687C20.234,-18.854 18.781,-19.437 17.063,-19.437C15.313,-19.437 13.839,-18.854 12.646,-17.687Z" style="fill:rgb(100,156,44);fill-rule:nonzero;"/>
            </g>
        </g>
    </g>
    <g transform="matrix(1,0,0,1,73.373,177.134)">
        <g>
            <g>
                <path d="M9.792,-26.458L16.25,-12.062L22.688,-26.458L33.521,-26.458L19.333,0L13.146,0L-1.042,-26.458L9.792,-26.458Z" style="fill:rgb(100,156,44);fill-rule:nonzero;"/>
            </g>
        </g>
    </g>
    <g transform="matrix(1,0,0,1,105.848,177.134)">
        <g>
            <g>
                <path d="M3.958,-41.187C5.026,-42.255 6.297,-42.792 7.771,-42.792C9.255,-42.792 10.531,-42.255 11.604,-41.187C12.672,-40.13 13.208,-38.859 13.208,-37.375C13.208,-35.901 12.672,-34.63 11.604,-33.562C10.531,-32.505 9.255,-31.979 7.771,-31.979C6.297,-31.979 5.026,-32.505 3.958,-33.562C2.901,-34.63 2.375,-35.901 2.375,-37.375C2.375,-38.859 2.901,-40.13 3.958,-41.187ZM3.104,-26.458L3.104,0L12.229,0L12.229,-26.458L3.104,-26.458Z" style="fill:rgb(100,156,44);fill-rule:nonzero;"/>
            </g>
        </g>
    </g>
    <g transform="matrix(1,0,0,1,121.415,177.134)">
        <g>
            <g>
                <path d="M4.896,-3.271C2.422,-5.964 1.188,-9.271 1.188,-13.187C1.188,-17.115 2.422,-20.437 4.896,-23.146C7.365,-25.865 10.51,-27.229 14.333,-27.229C17.844,-27.229 20.734,-26.125 23,-23.917L23,-44.354L32.125,-44.354L32.125,0L23.104,0L23.104,-3L23,-3C20.734,-0.484 17.844,0.771 14.333,0.771C10.51,0.771 7.365,-0.573 4.896,-3.271ZM12.646,-17.687C11.464,-16.521 10.875,-15.021 10.875,-13.187C10.875,-11.365 11.443,-9.88 12.583,-8.729C13.719,-7.589 15.214,-7.021 17.063,-7.021C18.854,-7.021 20.323,-7.604 21.479,-8.771C22.63,-9.937 23.208,-11.417 23.208,-13.208C23.208,-15.026 22.609,-16.521 21.417,-17.687C20.234,-18.854 18.781,-19.437 17.063,-19.437C15.313,-19.437 13.839,-18.854 12.646,-17.687Z" style="fill:rgb(100,156,44);fill-rule:nonzero;"/>
            </g>
        </g>
    </g>
    <g transform="matrix(1,0,0,1,156.621,177.134)">
        <g>
            <g>
                <path d="M4.646,-41.729C5.672,-42.781 6.922,-43.312 8.396,-43.312C9.88,-43.312 11.151,-42.776 12.208,-41.708C13.276,-40.651 13.813,-39.38 13.813,-37.896C13.813,-33.354 11.198,-28.901 5.979,-24.542L3.563,-26.458C3.771,-26.667 4.031,-26.948 4.354,-27.312C4.688,-27.672 5.177,-28.422 5.833,-29.562C6.484,-30.714 6.917,-31.875 7.125,-33.042C5.943,-33.318 4.979,-33.901 4.229,-34.792C3.479,-35.693 3.104,-36.729 3.104,-37.896C3.104,-39.406 3.615,-40.687 4.646,-41.729Z" style="fill:rgb(100,156,44);fill-rule:nonzero;"/>
            </g>
        </g>
    </g>
    <g transform="matrix(1,0,0,1,171.621,177.134)">
        <g>
            <g>
                <path d="M14.583,-27.229C16.094,-27.229 17.589,-27.052 19.063,-26.708C20.547,-26.359 21.651,-26.021 22.375,-25.687L23.458,-25.167L20.479,-19.187C18.406,-20.281 16.443,-20.833 14.583,-20.833C13.552,-20.833 12.823,-20.719 12.396,-20.5C11.964,-20.276 11.75,-19.854 11.75,-19.229C11.75,-19.089 11.76,-18.948 11.792,-18.812C11.833,-18.672 11.901,-18.542 12,-18.417C12.109,-18.302 12.208,-18.208 12.292,-18.125C12.375,-18.042 12.521,-17.943 12.729,-17.833C12.938,-17.734 13.104,-17.656 13.229,-17.604C13.354,-17.562 13.547,-17.484 13.813,-17.375C14.089,-17.276 14.297,-17.198 14.438,-17.146C14.573,-17.089 14.802,-17.005 15.125,-16.896C15.458,-16.797 15.708,-16.734 15.875,-16.708C16.943,-16.401 17.875,-16.052 18.667,-15.667C19.458,-15.292 20.292,-14.776 21.167,-14.125C22.042,-13.469 22.714,-12.646 23.188,-11.646C23.672,-10.656 23.917,-9.526 23.917,-8.25C23.917,-2.234 19.74,0.771 11.396,0.771C9.505,0.771 7.708,0.479 6,-0.104C4.302,-0.687 3.073,-1.271 2.313,-1.854L1.188,-2.792L4.896,-9.021C5.172,-8.781 5.531,-8.5 5.979,-8.167C6.422,-7.844 7.229,-7.401 8.396,-6.833C9.573,-6.26 10.589,-5.979 11.438,-5.979C13.339,-5.979 14.292,-6.615 14.292,-7.896C14.292,-8.479 14.047,-8.927 13.563,-9.25C13.073,-9.583 12.255,-9.948 11.104,-10.354C9.948,-10.771 9.047,-11.151 8.396,-11.5C6.755,-12.359 5.448,-13.333 4.479,-14.417C3.521,-15.5 3.042,-16.927 3.042,-18.708C3.042,-21.385 4.083,-23.479 6.167,-24.979C8.25,-26.479 11.052,-27.229 14.583,-27.229Z" style="fill:rgb(100,156,44);fill-rule:nonzero;"/>
            </g>
        </g>
    </g>
    <g transform="matrix(1,0,0,1,211.055,177.134)">
        <g>
            <g>
                <path d="M41.563,-23.812L41.563,-14.583C40.464,-9.542 38.052,-5.719 34.333,-3.125C30.625,-0.526 26.484,0.771 21.917,0.771C16.177,0.771 11.292,-1.375 7.25,-5.667C3.208,-9.969 1.188,-15.167 1.188,-21.25C1.188,-27.427 3.156,-32.651 7.104,-36.917C11.063,-41.177 16,-43.312 21.917,-43.312C28.818,-43.312 34.281,-40.885 38.313,-36.042L31.979,-29.083C29.698,-32.719 26.531,-34.542 22.479,-34.542C19.49,-34.542 16.938,-33.24 14.813,-30.646C12.698,-28.062 11.646,-24.927 11.646,-21.25C11.646,-17.635 12.698,-14.547 14.813,-11.979C16.938,-9.422 19.49,-8.146 22.479,-8.146C24.948,-8.146 27.104,-8.885 28.938,-10.375C30.781,-11.875 31.708,-13.865 31.708,-16.354L21.917,-16.354L21.917,-23.812L41.563,-23.812Z" style="fill:rgb(100,156,44);fill-rule:nonzero;"/>
            </g>
        </g>
    </g>
    <g transform="matrix(1,0,0,1,253.787,177.134)">
        <g>
            <g>
                <path d="M4.896,-3.271C2.422,-5.964 1.188,-9.271 1.188,-13.187C1.188,-17.115 2.422,-20.437 4.896,-23.146C7.365,-25.865 10.51,-27.229 14.333,-27.229C17.844,-27.229 20.734,-26.125 23,-23.917L23,-26.458L32.125,-26.458L32.125,0L23.104,0L23.104,-3L23,-3C20.734,-0.484 17.844,0.771 14.333,0.771C10.51,0.771 7.365,-0.573 4.896,-3.271ZM12.646,-17.687C11.464,-16.521 10.875,-15.021 10.875,-13.187C10.875,-11.365 11.443,-9.88 12.583,-8.729C13.719,-7.589 15.214,-7.021 17.063,-7.021C18.854,-7.021 20.323,-7.604 21.479,-8.771C22.63,-9.937 23.208,-11.417 23.208,-13.208C23.208,-15.026 22.609,-16.521 21.417,-17.687C20.234,-18.854 18.781,-19.437 17.063,-19.437C15.313,-19.437 13.839,-18.854 12.646,-17.687Z" style="fill:rgb(100,156,44);fill-rule:nonzero;"/>
            </g>
        </g>
    </g>
    <g transform="matrix(1,0,0,1,288.993,177.134)">
        <g>
            <g>
                <path d="M3.104,0L3.104,-26.458L12.229,-26.458L12.229,-22.646L12.333,-22.646C12.385,-22.771 12.49,-22.937 12.646,-23.146C12.813,-23.354 13.151,-23.714 13.667,-24.229C14.177,-24.74 14.729,-25.208 15.313,-25.625C15.896,-26.042 16.651,-26.406 17.583,-26.729C18.51,-27.062 19.458,-27.229 20.417,-27.229C21.417,-27.229 22.396,-27.089 23.354,-26.812C24.313,-26.531 25.021,-26.255 25.479,-25.979L26.188,-25.583L22.375,-17.833C21.234,-18.802 19.651,-19.292 17.625,-19.292C16.526,-19.292 15.583,-19.047 14.792,-18.562C14,-18.073 13.438,-17.484 13.104,-16.792C12.781,-16.109 12.552,-15.526 12.417,-15.042C12.292,-14.568 12.229,-14.193 12.229,-13.917L12.229,0L3.104,0Z" style="fill:rgb(100,156,44);fill-rule:nonzero;"/>
            </g>
        </g>
    </g>
    <g transform="matrix(1,0,0,1,314.664,177.134)">
        <g>
            <g>
                <path d="M4.896,-3.271C2.422,-5.964 1.188,-9.271 1.188,-13.187C1.188,-17.115 2.422,-20.437 4.896,-23.146C7.365,-25.865 10.51,-27.229 14.333,-27.229C17.844,-27.229 20.734,-26.125 23,-23.917L23,-44.354L32.125,-44.354L32.125,0L23.104,0L23.104,-3L23,-3C20.734,-0.484 17.844,0.771 14.333,0.771C10.51,0.771 7.365,-0.573 4.896,-3.271ZM12.646,-17.687C11.464,-16.521 10.875,-15.021 10.875,-13.187C10.875,-11.365 11.443,-9.88 12.583,-8.729C13.719,-7.589 15.214,-7.021 17.063,-7.021C18.854,-7.021 20.323,-7.604 21.479,-8.771C22.63,-9.937 23.208,-11.417 23.208,-13.208C23.208,-15.026 22.609,-16.521 21.417,-17.687C20.234,-18.854 18.781,-19.437 17.063,-19.437C15.313,-19.437 13.839,-18.854 12.646,-17.687Z" style="fill:rgb(100,156,44);fill-rule:nonzero;"/>
            </g>
        </g>
    </g>
    <g transform="matrix(1,0,0,1,349.87,177.134)">
        <g>
            <g>
                <path d="M29.854,-11.958L10.667,-11.958C10.667,-10.109 11.271,-8.734 12.479,-7.833C13.688,-6.943 14.99,-6.5 16.396,-6.5C17.865,-6.5 19.031,-6.693 19.896,-7.083C20.755,-7.484 21.734,-8.271 22.833,-9.437L29.438,-6.146C26.688,-1.531 22.115,0.771 15.729,0.771C11.74,0.771 8.318,-0.589 5.458,-3.312C2.609,-6.047 1.188,-9.339 1.188,-13.187C1.188,-17.047 2.609,-20.354 5.458,-23.104C8.318,-25.854 11.74,-27.229 15.729,-27.229C19.922,-27.229 23.333,-26.01 25.958,-23.583C28.594,-21.167 29.917,-17.708 29.917,-13.208C29.917,-12.583 29.896,-12.167 29.854,-11.958ZM10.938,-17.021L20.979,-17.021C20.771,-18.396 20.229,-19.448 19.354,-20.187C18.479,-20.922 17.354,-21.292 15.979,-21.292C14.464,-21.292 13.26,-20.896 12.375,-20.104C11.484,-19.312 11.005,-18.281 10.938,-17.021Z" style="fill:rgb(100,156,44);fill-rule:nonzero;"/>
            </g>
        </g>
    </g>
    <g transform="matrix(1,0,0,1,380.953,177.134)">
        <g>
            <g>
                <path d="M3.104,0L3.104,-26.458L12.229,-26.458L12.229,-23.667L12.333,-23.667C14.693,-26.042 17.214,-27.229 19.896,-27.229C21.198,-27.229 22.5,-27.052 23.792,-26.708C25.083,-26.359 26.318,-25.823 27.5,-25.104C28.693,-24.38 29.656,-23.359 30.396,-22.042C31.13,-20.719 31.5,-19.187 31.5,-17.437L31.5,0L22.375,0L22.375,-14.958C22.375,-16.333 21.938,-17.531 21.063,-18.562C20.188,-19.589 19.042,-20.104 17.625,-20.104C16.25,-20.104 15.005,-19.568 13.896,-18.5C12.781,-17.443 12.229,-16.26 12.229,-14.958L12.229,0L3.104,0Z" style="fill:rgb(100,156,44);fill-rule:nonzero;"/>
            </g>
        </g>
    </g>
    <g transform="matrix(1,0,0,1,415.025,177.134)">
        <g>
            <g>
                <path d="M3.958,-41.187C5.026,-42.255 6.297,-42.792 7.771,-42.792C9.255,-42.792 10.531,-42.255 11.604,-41.187C12.672,-40.13 13.208,-38.859 13.208,-37.375C13.208,-35.901 12.672,-34.63 11.604,-33.562C10.531,-32.505 9.255,-31.979 7.771,-31.979C6.297,-31.979 5.026,-32.505 3.958,-33.562C2.901,-34.63 2.375,-35.901 2.375,-37.375C2.375,-38.859 2.901,-40.13 3.958,-41.187ZM3.104,-26.458L3.104,0L12.229,0L12.229,-26.458L3.104,-26.458Z" style="fill:rgb(100,156,44);fill-rule:nonzero;"/>
            </g>
        </g>
    </g>
    <g transform="matrix(1,0,0,1,430.592,177.134)">
        <g>
            <g>
                <path d="M3.104,0L3.104,-26.458L12.229,-26.458L12.229,-23.667L12.333,-23.667C14.693,-26.042 17.214,-27.229 19.896,-27.229C21.198,-27.229 22.5,-27.052 23.792,-26.708C25.083,-26.359 26.318,-25.823 27.5,-25.104C28.693,-24.38 29.656,-23.359 30.396,-22.042C31.13,-20.719 31.5,-19.187 31.5,-17.437L31.5,0L22.375,0L22.375,-14.958C22.375,-16.333 21.938,-17.531 21.063,-18.562C20.188,-19.589 19.042,-20.104 17.625,-20.104C16.25,-20.104 15.005,-19.568 13.896,-18.5C12.781,-17.443 12.229,-16.26 12.229,-14.958L12.229,0L3.104,0Z" style="fill:rgb(100,156,44);fill-rule:nonzero;"/>
            </g>
        </g>
    </g>
    <g transform="matrix(1,0,0,1,464.665,177.134)">
        <g>
            <g>
                <path d="M1.917,6.5L9.375,2.833C10.75,5.094 13.135,6.229 16.542,6.229C18.125,6.229 19.594,5.719 20.958,4.708C22.318,3.693 23,2.135 23,0.042L23,-1.917C21.385,-0.125 18.5,0.771 14.333,0.771C10.51,0.771 7.365,-0.573 4.896,-3.271C2.422,-5.964 1.188,-9.271 1.188,-13.187C1.188,-17.115 2.422,-20.437 4.896,-23.146C7.365,-25.865 10.51,-27.229 14.333,-27.229C17.734,-27.229 20.568,-26.177 22.833,-24.083L23,-24.083L23,-26.458L32.125,-26.458L32.125,0.729C32.125,5.021 30.693,8.333 27.833,10.667C24.984,13.01 21.219,14.188 16.542,14.188C8.984,14.188 4.109,11.625 1.917,6.5ZM12.646,-17.687C11.464,-16.521 10.875,-15.021 10.875,-13.187C10.875,-11.365 11.443,-9.88 12.583,-8.729C13.719,-7.589 15.214,-7.021 17.063,-7.021C18.854,-7.021 20.323,-7.604 21.479,-8.771C22.63,-9.937 23.208,-11.417 23.208,-13.208C23.208,-15.026 22.609,-16.521 21.417,-17.687C20.234,-18.854 18.781,-19.437 17.063,-19.437C15.313,-19.437 13.839,-18.854 12.646,-17.687Z" style="fill:rgb(100,156,44);fill-rule:nonzero;"/>
            </g>
        </g>
    </g>
    <g transform="matrix(1,0,0,1,145.005,231.489)">
        <g>
            <g>
                <path d="M18.792,-43.354C21.094,-43.354 23.344,-43.01 25.542,-42.333C27.75,-41.667 29.38,-41.005 30.438,-40.354L32,-39.312L28.063,-31.583C27.755,-31.792 27.323,-32.052 26.771,-32.375C26.229,-32.708 25.198,-33.146 23.688,-33.687C22.172,-34.24 20.76,-34.521 19.458,-34.521C17.833,-34.521 16.583,-34.172 15.708,-33.479C14.833,-32.797 14.396,-31.875 14.396,-30.708C14.396,-30.125 14.604,-29.583 15.021,-29.083C15.438,-28.583 16.135,-28.047 17.125,-27.479C18.125,-26.906 19,-26.448 19.75,-26.104C20.51,-25.771 21.688,-25.255 23.271,-24.562C26.021,-23.396 28.365,-21.802 30.313,-19.792C32.255,-17.776 33.229,-15.5 33.229,-12.958C33.229,-10.51 32.792,-8.375 31.917,-6.542C31.042,-4.719 29.833,-3.297 28.292,-2.271C26.76,-1.24 25.068,-0.479 23.208,0.021C21.359,0.521 19.354,0.771 17.188,0.771C15.323,0.771 13.5,0.583 11.708,0.208C9.917,-0.167 8.417,-0.635 7.208,-1.208C6.01,-1.776 4.927,-2.333 3.958,-2.875C3,-3.427 2.297,-3.901 1.854,-4.292L1.188,-4.854L6.042,-13C6.458,-12.651 7.026,-12.214 7.75,-11.687C8.469,-11.156 9.75,-10.443 11.583,-9.542C13.427,-8.651 15.052,-8.208 16.458,-8.208C20.552,-8.208 22.604,-9.594 22.604,-12.375C22.604,-12.969 22.458,-13.51 22.167,-14C21.875,-14.5 21.354,-15 20.604,-15.5C19.865,-16 19.214,-16.396 18.646,-16.687C18.089,-16.979 17.167,-17.422 15.875,-18.021C14.583,-18.63 13.625,-19.089 13,-19.396C10.417,-20.672 8.417,-22.26 7,-24.167C5.594,-26.083 4.896,-28.135 4.896,-30.333C4.896,-34.151 6.302,-37.276 9.125,-39.708C11.958,-42.135 15.177,-43.354 18.792,-43.354Z" style="fill:rgb(100,156,44);fill-rule:nonzero;"/>
            </g>
        </g>
    </g>
    <g transform="matrix(1,0,0,1,179.676,231.489)">
        <g>
            <g>
                <path d="M29.875,-11.979L10.688,-11.979C10.688,-10.115 11.281,-8.734 12.479,-7.833C13.688,-6.943 15,-6.5 16.417,-6.5C17.885,-6.5 19.052,-6.693 19.917,-7.083C20.776,-7.484 21.755,-8.271 22.854,-9.437L29.458,-6.146C26.708,-1.531 22.13,0.771 15.729,0.771C11.74,0.771 8.318,-0.594 5.458,-3.333C2.609,-6.068 1.188,-9.359 1.188,-13.208C1.188,-17.068 2.609,-20.375 5.458,-23.125C8.318,-25.875 11.74,-27.25 15.729,-27.25C19.938,-27.25 23.354,-26.031 25.979,-23.604C28.615,-21.187 29.938,-17.719 29.938,-13.208C29.938,-12.594 29.917,-12.187 29.875,-11.979ZM10.938,-17.021L21,-17.021C20.792,-18.396 20.25,-19.448 19.375,-20.187C18.5,-20.937 17.375,-21.312 16,-21.312C14.484,-21.312 13.276,-20.917 12.375,-20.125C11.484,-19.333 11.005,-18.297 10.938,-17.021Z" style="fill:rgb(100,156,44);fill-rule:nonzero;"/>
            </g>
        </g>
    </g>
    <g transform="matrix(1,0,0,1,210.787,231.489)">
        <g>
            <g>
                <path d="M3.104,0L3.104,-26.479L12.229,-26.479L12.229,-22.646L12.333,-22.646C12.401,-22.781 12.51,-22.958 12.667,-23.167C12.818,-23.375 13.151,-23.734 13.667,-24.25C14.193,-24.76 14.75,-25.229 15.333,-25.646C15.917,-26.062 16.672,-26.427 17.604,-26.75C18.531,-27.083 19.479,-27.25 20.438,-27.25C21.438,-27.25 22.417,-27.109 23.375,-26.833C24.333,-26.552 25.042,-26.276 25.5,-26L26.208,-25.604L22.396,-17.854C21.255,-18.812 19.672,-19.292 17.646,-19.292C16.547,-19.292 15.604,-19.047 14.813,-18.562C14.021,-18.089 13.458,-17.505 13.125,-16.812C12.802,-16.13 12.573,-15.547 12.438,-15.062C12.297,-14.589 12.229,-14.214 12.229,-13.937L12.229,0L3.104,0Z" style="fill:rgb(100,156,44);fill-rule:nonzero;"/>
            </g>
        </g>
    </g>
    <g transform="matrix(1,0,0,1,236.481,231.489)">
        <g>
            <g>
                <path d="M9.813,-26.479L16.25,-12.083L22.708,-26.479L33.542,-26.479L19.354,0L13.167,0L-1.042,-26.479L9.813,-26.479Z" style="fill:rgb(100,156,44);fill-rule:nonzero;"/>
            </g>
        </g>
    </g>
    <g transform="matrix(1,0,0,1,268.985,231.489)">
        <g>
            <g>
                <path d="M3.979,-41.229C5.047,-42.297 6.318,-42.833 7.792,-42.833C9.276,-42.833 10.547,-42.297 11.604,-41.229C12.672,-40.156 13.208,-38.88 13.208,-37.396C13.208,-35.922 12.672,-34.651 11.604,-33.583C10.547,-32.526 9.276,-32 7.792,-32C6.318,-32 5.047,-32.526 3.979,-33.583C2.906,-34.651 2.375,-35.922 2.375,-37.396C2.375,-38.88 2.906,-40.156 3.979,-41.229ZM3.104,-26.479L3.104,0L12.229,0L12.229,-26.479L3.104,-26.479Z" style="fill:rgb(100,156,44);fill-rule:nonzero;"/>
            </g>
        </g>
    </g>
    <g transform="matrix(1,0,0,1,284.566,231.489)">
        <g>
            <g>
                <path d="M17.188,-19.771C15.464,-19.771 13.984,-19.13 12.75,-17.854C11.51,-16.573 10.896,-15.047 10.896,-13.271C10.896,-11.437 11.51,-9.88 12.75,-8.604C13.984,-7.339 15.464,-6.708 17.188,-6.708C18.005,-6.708 18.781,-6.812 19.521,-7.021C20.271,-7.229 20.818,-7.437 21.167,-7.646L21.625,-7.937L24.708,-1.604C24.469,-1.422 24.135,-1.198 23.708,-0.937C23.276,-0.687 22.297,-0.339 20.771,0.104C19.24,0.547 17.594,0.771 15.833,0.771C11.958,0.771 8.547,-0.594 5.604,-3.333C2.656,-6.068 1.188,-9.344 1.188,-13.167C1.188,-17.01 2.656,-20.318 5.604,-23.083C8.547,-25.859 11.958,-27.25 15.833,-27.25C17.594,-27.25 19.214,-27.042 20.688,-26.625C22.172,-26.208 23.219,-25.797 23.833,-25.396L24.708,-24.771L21.625,-18.521C20.484,-19.354 19.005,-19.771 17.188,-19.771Z" style="fill:rgb(100,156,44);fill-rule:nonzero;"/>
            </g>
        </g>
    </g>
    <g transform="matrix(1,0,0,1,309.899,231.489)">
        <g>
            <g>
                <path d="M29.875,-11.979L10.688,-11.979C10.688,-10.115 11.281,-8.734 12.479,-7.833C13.688,-6.943 15,-6.5 16.417,-6.5C17.885,-6.5 19.052,-6.693 19.917,-7.083C20.776,-7.484 21.755,-8.271 22.854,-9.437L29.458,-6.146C26.708,-1.531 22.13,0.771 15.729,0.771C11.74,0.771 8.318,-0.594 5.458,-3.333C2.609,-6.068 1.188,-9.359 1.188,-13.208C1.188,-17.068 2.609,-20.375 5.458,-23.125C8.318,-25.875 11.74,-27.25 15.729,-27.25C19.938,-27.25 23.354,-26.031 25.979,-23.604C28.615,-21.187 29.938,-17.719 29.938,-13.208C29.938,-12.594 29.917,-12.187 29.875,-11.979ZM10.938,-17.021L21,-17.021C20.792,-18.396 20.25,-19.448 19.375,-20.187C18.5,-20.937 17.375,-21.312 16,-21.312C14.484,-21.312 13.276,-20.917 12.375,-20.125C11.484,-19.333 11.005,-18.297 10.938,-17.021Z" style="fill:rgb(100,156,44);fill-rule:nonzero;"/>
            </g>
        </g>
    </g>
    <g transform="matrix(1,0,0,1,341.01,231.489)">
        <g>
            <g>
                <path d="M14.604,-27.25C16.115,-27.25 17.609,-27.073 19.083,-26.729C20.568,-26.38 21.672,-26.042 22.396,-25.708L23.479,-25.187L20.479,-19.187C18.422,-20.297 16.464,-20.854 14.604,-20.854C13.573,-20.854 12.844,-20.74 12.417,-20.521C11.984,-20.297 11.771,-19.875 11.771,-19.25C11.771,-19.109 11.781,-18.969 11.813,-18.833C11.854,-18.693 11.922,-18.562 12.021,-18.437C12.13,-18.323 12.229,-18.219 12.313,-18.125C12.396,-18.042 12.542,-17.948 12.75,-17.854C12.958,-17.755 13.115,-17.677 13.229,-17.625C13.354,-17.568 13.552,-17.484 13.833,-17.375C14.109,-17.276 14.313,-17.198 14.438,-17.146C14.573,-17.104 14.813,-17.026 15.146,-16.917C15.479,-16.818 15.729,-16.755 15.896,-16.729C16.964,-16.406 17.896,-16.062 18.688,-15.687C19.479,-15.312 20.313,-14.797 21.188,-14.146C22.063,-13.49 22.734,-12.667 23.208,-11.667C23.693,-10.667 23.938,-9.526 23.938,-8.25C23.938,-2.234 19.755,0.771 11.396,0.771C9.505,0.771 7.708,0.479 6,-0.104C4.302,-0.687 3.073,-1.271 2.313,-1.854L1.188,-2.792L4.896,-9.021C5.172,-8.781 5.531,-8.5 5.979,-8.167C6.438,-7.844 7.25,-7.401 8.417,-6.833C9.583,-6.26 10.594,-5.979 11.458,-5.979C13.344,-5.979 14.292,-6.615 14.292,-7.896C14.292,-8.479 14.047,-8.927 13.563,-9.25C13.089,-9.583 12.276,-9.958 11.125,-10.375C9.969,-10.792 9.068,-11.167 8.417,-11.5C6.76,-12.359 5.448,-13.333 4.479,-14.417C3.521,-15.5 3.042,-16.937 3.042,-18.729C3.042,-21.406 4.083,-23.5 6.167,-25C8.25,-26.5 11.063,-27.25 14.604,-27.25Z" style="fill:rgb(100,156,44);fill-rule:nonzero;"/>
            </g>
        </g>
    </g>
</svg>
